<svg width="917" height="361" viewBox="0 0 917 361" fill="none" xmlns="http://www.w3.org/2000/svg">
<path fill-rule="evenodd" clip-rule="evenodd" d="M23 0.831543C10.8497 0.831543 1 10.6813 1 22.8315V338.391C1 350.541 10.8497 360.391 23 360.391H853.076C865.226 360.391 875.076 350.541 875.076 338.391V314.532C882.622 307.126 893.01 298.642 902.029 291.276C907.082 287.149 911.706 283.373 915.159 280.334C885.518 280.431 878.855 268.825 875.076 256.155V22.8315C875.076 10.6813 865.226 0.831543 853.076 0.831543H23Z" fill="#F5EBEB"/>
<path d="M875.076 314.532L874.726 314.175L874.576 314.322V314.532H875.076ZM902.029 291.276L901.713 290.889L902.029 291.276ZM915.159 280.334L915.49 280.71L916.489 279.83L915.158 279.834L915.159 280.334ZM875.076 256.155H874.576V256.228L874.597 256.298L875.076 256.155ZM1.5 22.8315C1.5 10.9574 11.1259 1.33154 23 1.33154V0.331543C10.5736 0.331543 0.5 10.4051 0.5 22.8315H1.5ZM1.5 338.391V22.8315H0.5V338.391H1.5ZM23 359.891C11.1259 359.891 1.5 350.265 1.5 338.391H0.5C0.5 350.817 10.5736 360.891 23 360.891V359.891ZM853.076 359.891H23V360.891H853.076V359.891ZM874.576 338.391C874.576 350.265 864.95 359.891 853.076 359.891V360.891C865.502 360.891 875.576 350.817 875.576 338.391H874.576ZM874.576 314.532V338.391H875.576V314.532H874.576ZM875.426 314.889C882.952 307.503 893.321 299.034 902.345 291.664L901.713 290.889C892.699 298.251 882.291 306.75 874.726 314.175L875.426 314.889ZM902.345 291.664C907.396 287.539 912.028 283.756 915.49 280.71L914.829 279.959C911.384 282.99 906.769 286.76 901.713 290.889L902.345 291.664ZM915.158 279.834C900.394 279.883 891.445 277.015 885.723 272.635C880.007 268.259 877.435 262.315 875.555 256.012L874.597 256.298C876.496 262.666 879.146 268.859 885.116 273.43C891.081 277.996 900.283 280.883 915.161 280.834L915.158 279.834ZM874.576 22.8315V256.155H875.576V22.8315H874.576ZM853.076 1.33154C864.95 1.33154 874.576 10.9574 874.576 22.8315H875.576C875.576 10.4051 865.502 0.331543 853.076 0.331543V1.33154ZM23 1.33154H853.076V0.331543H23V1.33154Z" fill="black"/>
</svg>
